#!OML:ASF F:\VICON\USERDATA\INSTALL\rory3\rory3.ASF
:FULLY-SPECIFIED
:DEGREES
9
root 0.4788116556008654 17.5594971996119 -13.775791712476458 5.851774967288216 -0.9750223933228421 -1.6442225407294682
lfemur -9.754448400256152 8.43307664141537 -18.32730414259394
ltibia 16.80760817462141
lfoot -11.710700615298864 1.6620760073355827
ltoes -8.316145313495365
rfemur -10.76360672960018 -3.775891667799458 20.169706236597037
rtibia 19.588607411661933
rfoot -13.982200983414389 -1.5788351874555633
rtoes 7.828743444371229
lowerback -1.3008724926510906 -0.30758728513862343 0.5008256303640632
upperback 4.212297856792429 -0.5016116669061882 1.5759844690791396
thorax 5.089419448516613 -0.2650336626879676 1.321137565291219
lowerneck -16.171796819844875 0.7008723488375731 -2.2203020429799643
upperneck 26.456290550710783 1.6425657846031245 -0.025064141742035608
head 11.242689307033304 0.5136708944308739 0.6029484001949864
lclavicle 5.751011745995233e-16 -3.12376181921908e-16
lhumerus -17.976601327305378 -8.651510322804222 92.32018975814746
lradius 20.366894732270765
lwrist 5.117621102358181
lhand -24.982806728760877 -4.450668284822628
lfingers 7.125019999999998
lthumb 1.5281332831163579 25.523591798186494
rclavicle 5.751011745995233e-16 -3.12376181921908e-16
rhumerus -18.57070361113865 -10.885007899213019 -84.82789126227416
rradius 24.258698650726853
rwrist 32.285604824823345
rhand -19.395606763964143 -26.269201013764008
rfingers 7.125019999999998
rthumb 6.923313313627541 -56.1359011655789
10
root 0.48486644707716203 17.55829721635851 -13.77349178216538 5.834175059287225 -0.9773953778025103 -1.6218028749463673
lfemur -9.729947506100523 8.52721603148369 -18.369203842860088
ltibia 16.809408297213025
lfoot -11.756100585603416 1.5574263024863928
ltoes -8.21277558069151
rfemur -10.762006814349707 -3.774741758391196 20.12220660538271
rtibia 19.637907874649468
rfoot -14.006500957384096 -1.598095165526963
rtoes 7.759833488871395
lowerback -1.3422327308398447 -0.32196200502805783 0.5291722865643032
upperback 4.129328255060827 -0.5211153702223356 1.5756744770919004
thorax 5.026189743517779 -0.27331042011973794 1.3034578395168686
lowerneck -16.149396879756978 0.7484194509026967 -2.1704829272720656
upperneck 26.554390707589203 1.721764833522975 -0.11178133367199293
head 11.275989231984905 0.5423210136807021 0.5745580293228805
lclavicle 5.751011768691104e-16 -3.123762047534987e-16
lhumerus -17.86670151748099 -8.284831056726691 92.07859005967236
lradius 20.091595554383645
lwrist 4.709911729940568
lhand -24.96140688302334 -4.580147717242178
lfingers 7.125019999999998
lthumb 1.5488030819121035 25.39399230685957
rclavicle 5.751011768691104e-16 -3.123762047534987e-16
rhumerus -18.70330335199285 -10.714908150843753 -84.81539116779084
rradius 24.311198510550653
rwrist 32.206104966041394
rhand -19.398106669954394 -26.249401160831976
rfingers 7.125019999999998
rthumb 6.920823279024351 -56.11630130885953
11
root 0.48990227412068343 17.557597212486858 -13.772891263848686 5.829064829503638 -0.975731391441695 -1.6096530439770322
lfemur -9.734137977258815 8.54835586393547 -18.40030360519955
ltibia 16.830808329077247
lfoot -11.783500550489489 1.535266186801981
ltoes -8.19217560991725
rfemur -10.767107398866173 -3.787031701270741 20.090206856306292
rtibia 19.66060706549023
rfoot -14.022100956584511 -1.5998951747150465
rtoes 7.758013438068856
lowerback -1.3991723554131381 -0.3334437760613316 0.5421401009310162
upperback 4.061758556560552 -0.5368891283055301 1.5806443724680832
thorax 4.988160058377124 -0.28054921277397527 1.300067880697783
lowerneck -16.156396874166266 0.783507792042015 -2.132873564774289
upperneck 26.635490461392298 1.7750741816317142 -0.15555802109505798
head 11.308488946465562 0.5635483598577312 0.5603243505111648
lclavicle 5.751011828976914e-16 -3.1237621336917257e-16
lhumerus -17.74850162869631 -8.082481368226297 91.82739062288155
lradius 19.884396115484403
lwrist 4.404142233104344
lhand -24.95440696668601 -4.355568607440484
lfingers 7.125019999999998
lthumb 1.5556230262626474 25.618491304461692
rclavicle 5.751011828976914e-16 -3.1237621336917257e-16
rhumerus -18.745503360588348 -10.777408116995446 -84.76339125076069
rradius 24.244498685655252
rwrist 32.30290473419168
rhand -19.35940698356239 -26.275700960094
rfingers 7.125019999999998
rthumb 6.958252981869607 -56.14130112661702
12
root 0.4939721341633004 17.556597253723393 -13.771291252717223 5.8032249886526355 -1.0078801565649136 -1.623582833692947
lfemur -9.699698145099543 8.548105852177201 -18.392303677025218
ltibia 16.842507201344045
lfoot -11.80430051533037 1.562346341701427
ltoes -8.182265763685095
rfemur -10.745907838072938 -3.7806716494732706 20.088006826956473
rtibia 19.672807416181072
rfoot -14.024400900287779 -1.5874252112629574
rtoes 7.710193720377404
lowerback -1.4310126713970082 -0.3377266948360051 0.5621548390078647
upperback 4.008148818770379 -0.5433060514325778 1.5881542108599878
thorax 4.9502201146864975 -0.28297313602068397 1.2960279240945
lowerneck -16.167496797265663 0.7741539702911566 -2.2325318058389376
upperneck 26.72009014910222 1.766754275046105 -0.06758744163593677
head 11.340989051483296 0.5595714810306501 0.6088902690635342
lclavicle 5.751011792096199e-16 -3.123761987224799e-16
lhumerus -17.65860178746883 -7.844301396211496 91.54609150739184
lradius 19.74959655545387
lwrist 4.180592618976908
lhand -24.974706754300172 -4.337308680064918
lfingers 7.125019999999998
lthumb 1.5360032021998118 25.636891334063673
rclavicle 5.751011792096199e-16 -3.123761987224799e-16
rhumerus -18.760903319140127 -10.913707842989682 -84.71319134936176
rradius 24.133499053821694
rwrist 32.46590448758644
rhand -19.381706850140173 -26.26190106978274
rfingers 7.125019999999998
rthumb 6.936663199371095 -56.12820122150834
13
root 0.49628606380068824 17.55549724179343 -13.770591333537606 5.75607491575161 -1.0489498609595613 -1.6414325796918838
lfemur -9.651517369546454 8.542195898866801 -18.370403858767855
ltibia 16.873007924257664
lfoot -11.81920049910543 1.6024862338213013
ltoes -8.137205643688834
rfemur -10.69530675779217 -3.7670817647770445 20.09590679321547
rtibia 19.67590703836735
rfoot -14.028500923210096 -1.5730751580536957
rtoes 7.66381366148247
lowerback -1.454752409686935 -0.3427845890243316 0.5481200175137882
upperback 3.980908955007843 -0.5498509420844071 1.5978739934289603
thorax 4.935619930767434 -0.2869270200657023 1.3134276672814902
lowerneck -16.128097000822752 0.7764999271508938 -2.2463215814557125
upperneck 26.75269009466851 1.7707842259330715 -0.05917520066742653
head 11.345388842193708 0.5606634501916824 0.6148031387391912
lclavicle 5.751011856637451e-16 -3.1237623081598214e-16
lhumerus -17.591101942386498 -7.597971821180197 91.26939218035743
lradius 19.714496595093042
lwrist 4.035292813621691
lhand -25.050506148552373 -4.382428573184331
lfingers 7.125019999999998
lthumb 1.4627738526191898 25.59229145418654
rclavicle 5.751011856637451e-16 -3.1237623081598214e-16
rhumerus -18.770003380170067 -10.887507924622373 -84.69659140214239
rradius 24.073399259122834
rwrist 32.513104344261464
rhand -19.38650678716558 -26.235001262400385
rfingers 7.125019999999998
rthumb 6.93204322598029 -56.10150143204222
